<?xml version="1.0" standalone="no"?>
<!DOCTYPE svg PUBLIC "-//W3C//DTD SVG 20010904//EN"
 "http://www.w3.org/TR/2001/REC-SVG-20010904/DTD/svg10.dtd">
<svg version="1.0" xmlns="http://www.w3.org/2000/svg"
 width="109.000000pt" height="109.000000pt" viewBox="0 0 109.000000 109.000000"
 preserveAspectRatio="xMidYMid meet">
<metadata>
Created by potrace 1.10, written by Peter Selinger 2001-2011
</metadata>
<g transform="translate(0.000000,109.000000) scale(0.050000,-0.050000)"
fill="#000000" stroke="none">
<path d="M372 2138 c-334 -22 -322 -6 -322 -434 0 -320 2 -338 51 -424 l50
-90 130 3 c529 14 695 31 707 75 24 91 11 536 -20 673 -52 230 -62 233 -596
197z m455 -57 c70 -26 119 -253 120 -561 l2 -230 -240 -12 c-131 -7 -299 -19
-372 -28 l-133 -15 -46 87 c-53 102 -83 614 -41 693 40 73 563 122 710 66z"/>
<path d="M1510 2084 c-93 -59 -120 -99 -237 -345 -253 -531 -230 -566 374
-576 533 -8 600 55 410 381 -37 62 -107 187 -157 277 -157 285 -253 350 -390
263z m137 -43 c92 -35 433 -600 433 -717 0 -95 -30 -105 -329 -105 -590 -1
-607 9 -504 305 124 359 216 501 347 535 2 1 26 -8 53 -18z"/>
<path d="M589 1111 c-16 -39 -29 -119 -29 -178 0 -170 -53 -169 -64 1 -12 186
-142 279 -225 162 -35 -50 -43 -262 -13 -341 14 -38 10 -53 -19 -71 -108 -68
-181 -406 -111 -513 105 -161 704 -180 819 -26 96 130 39 409 -114 553 -47 44
-48 47 -18 140 74 232 -137 486 -226 273z"/>
<path d="M1490 1126 c-373 -43 -466 -640 -116 -736 84 -23 88 -27 34 -28 -168
-5 -182 -202 -14 -202 26 0 46 -12 46 -27 0 -121 251 -147 310 -33 18 35 47
60 69 60 67 0 101 23 101 69 0 55 -78 131 -136 131 -24 0 -44 7 -44 15 0 8 44
15 99 15 179 0 260 98 261 313 0 276 -269 462 -610 423z m316 -88 c168 -85
234 -179 234 -336 0 -183 -77 -262 -258 -262 -78 0 -82 -3 -82 -60 0 -50 8
-60 48 -60 60 0 143 -65 124 -97 -8 -13 -49 -23 -92 -23 -69 0 -78 -6 -84 -55
-11 -97 -196 -72 -196 27 0 39 -11 48 -55 48 -30 0 -68 9 -84 19 -47 29 12 81
93 81 119 0 88 102 -41 134 -120 30 -147 52 -173 143 -91 331 252 598 566 441z"/>
</g>
</svg>
